<?xml version="1.0" encoding="iso-8859-1"?>
<!-- Generator: Adobe Illustrator 21.0.0, SVG Export Plug-In . SVG Version: 6.00 Build 0)  -->
<svg version="1.1" id="Layer_1" xmlns="http://www.w3.org/2000/svg" xmlns:xlink="http://www.w3.org/1999/xlink" x="0px" y="0px"
	 viewBox="0 0 100.353 100.353" style="enable-background:new 0 0 100.353 100.353;" xml:space="preserve">
<path d="M78.63,23.039h-3.312v-7.446c0-0.829-0.671-1.5-1.5-1.5H25.35c-0.829,0-1.5,0.671-1.5,1.5v7.446h-3.314
	c-0.829,0-1.5,0.671-1.5,1.5v7.566c0,0.829,0.671,1.5,1.5,1.5h3.477l6.224,54.045c0.087,0.757,0.728,1.329,1.49,1.329h35.715
	c0.762,0,1.403-0.571,1.49-1.329l6.223-54.045h3.475c0.829,0,1.5-0.671,1.5-1.5v-7.566C80.13,23.711,79.459,23.039,78.63,23.039z
	 M26.85,17.094h45.468v5.946H26.85V17.094z M67.641,72.637H31.527l-2.818-24.469h41.749L67.641,72.637z M33.064,85.979
	l-1.191-10.342h35.422l-1.191,10.342H33.064z M70.804,45.168h-42.44l-1.332-11.562h45.103L70.804,45.168z M77.13,30.605h-3.312
	H25.35h-3.314v-4.566h3.314h48.468h3.312V30.605z"/>
</svg>
