<?xml version="1.0" encoding="UTF-8" standalone="no"?> <svg width="512" height="512" viewBox="0 0 512 512" fill="none" xmlns="http://www.w3.org/2000/svg">
<path d="M112 392H96C93.8783 392 91.8434 392.843 90.3431 394.343C88.8429 395.843 88 397.878 88 400C88 402.122 88.8429 404.157 90.3431 405.657C91.8434 407.157 93.8783 408 96 408H112C114.122 408 116.157 407.157 117.657 405.657C119.157 404.157 120 402.122 120 400C120 397.878 119.157 395.843 117.657 394.343C116.157 392.843 114.122 392 112 392Z" fill="black"/>
<path d="M152 392H144C141.878 392 139.843 392.843 138.343 394.343C136.843 395.843 136 397.878 136 400C136 402.122 136.843 404.157 138.343 405.657C139.843 407.157 141.878 408 144 408H152C154.122 408 156.157 407.157 157.657 405.657C159.157 404.157 160 402.122 160 400C160 397.878 159.157 395.843 157.657 394.343C156.157 392.843 154.122 392 152 392Z" fill="black"/>
<path d="M232 392H200C197.878 392 195.843 392.843 194.343 394.343C192.843 395.843 192 397.878 192 400C192 402.122 192.843 404.157 194.343 405.657C195.843 407.157 197.878 408 200 408H232C234.122 408 236.157 407.157 237.657 405.657C239.157 404.157 240 402.122 240 400C240 397.878 239.157 395.843 237.657 394.343C236.157 392.843 234.122 392 232 392Z" fill="black"/>
<path d="M472.434 128H488C490.122 128 492.157 127.157 493.657 125.657C495.157 124.157 496 122.122 496 120C496 117.878 495.157 115.843 493.657 114.343C492.157 112.843 490.122 112 488 112H482.434L494.784 92.24C495.541 91.029 495.96 89.6375 495.997 88.21C496.035 86.7824 495.689 85.3709 494.997 84.1218C494.305 82.8728 493.291 81.8319 492.061 81.1071C490.83 80.3822 489.428 80 488 80H456C454.619 80 453.261 80.3577 452.058 81.0384C450.856 81.719 449.851 82.6994 449.14 83.884L432.271 112H431.729L414.86 83.884C414.149 82.6994 413.144 81.719 411.942 81.0384C410.739 80.3577 409.382 80 408 80H376C374.572 80 373.17 80.3822 371.94 81.1071C370.709 81.8319 369.695 82.8728 369.003 84.1218C368.311 85.3709 367.965 86.7824 368.003 88.21C368.04 89.6375 368.459 91.029 369.216 92.24L381.566 112H368C367.995 107.758 366.308 103.691 363.308 100.692C360.309 97.6924 356.242 96.005 352 96H320C315.758 96.005 311.691 97.6924 308.692 100.692C305.692 103.691 304.005 107.758 304 112H288C287.995 107.758 286.308 103.691 283.308 100.692C280.309 97.6924 276.242 96.005 272 96H240C235.758 96.005 231.691 97.6924 228.692 100.692C225.692 103.691 224.005 107.758 224 112H208C207.995 107.758 206.308 103.691 203.308 100.692C200.309 97.6924 196.242 96.005 192 96H160C155.758 96.005 151.691 97.6924 148.692 100.692C145.692 103.691 144.005 107.758 144 112H130.434L142.784 92.24C143.541 91.029 143.96 89.6375 143.997 88.21C144.035 86.7824 143.689 85.3709 142.997 84.1218C142.305 82.8728 141.291 81.8319 140.06 81.1071C138.83 80.3822 137.428 80 136 80H104C102.619 80 101.261 80.3577 100.058 81.0384C98.8562 81.719 97.8508 82.6994 97.14 83.884L80 112.451L62.86 83.884C62.1492 82.6994 61.1438 81.719 59.9416 81.0384C58.7395 80.3577 57.3815 80 56 80H24C22.572 80 21.17 80.3822 19.9395 81.1071C18.7091 81.8319 17.6951 82.8728 17.0029 84.1218C16.3106 85.3709 15.9653 86.7824 16.0028 88.21C16.0402 89.6375 16.4592 91.029 17.216 92.24L29.566 112H24C21.8783 112 19.8435 112.843 18.3432 114.343C16.8429 115.843 16 117.878 16 120C16 122.122 16.8429 124.157 18.3432 125.657C19.8435 127.157 21.8783 128 24 128H39.566L56 154.294V369.013C51.2216 370.243 46.7927 372.563 43.0602 375.791C39.3277 379.018 36.3929 383.065 34.4854 387.616C32.5779 392.167 31.7496 397.097 32.0653 402.022C32.381 406.946 33.8321 411.73 36.305 416H24C21.8783 416 19.8435 416.843 18.3432 418.343C16.8429 419.843 16 421.878 16 424C16 426.122 16.8429 428.157 18.3432 429.657C19.8435 431.157 21.8783 432 24 432H488C490.122 432 492.157 431.157 493.657 429.657C495.157 428.157 496 426.122 496 424C496 421.878 495.157 419.843 493.657 418.343C492.157 416.843 490.122 416 488 416H456V154.294L472.434 128ZM390.434 96H403.471L413.071 112H400.434L390.434 96ZM320 112H352L352.01 136H320V112ZM240 112H272L272.01 136H240V112ZM160 112H192V119.933C192 119.956 192 119.977 192 120C192 120.023 192 120.045 192 120.068L192.01 136H160V112ZM144 128V136C144.005 140.242 145.692 144.309 148.692 147.308C151.691 150.308 155.758 151.995 160 152H192C196.242 151.995 200.309 150.308 203.308 147.308C206.308 144.309 207.995 140.242 208 136V128H224V136C224.005 140.242 225.692 144.309 228.692 147.308C231.691 150.308 235.758 151.995 240 152H272C276.242 151.995 280.309 150.308 283.308 147.308C286.308 144.309 287.995 140.242 288 136V128H304V136C304.005 140.242 305.692 144.309 308.692 147.308C311.691 150.308 315.758 151.995 320 152H352C356.242 151.995 360.309 150.308 363.308 147.308C366.308 144.309 367.995 140.242 368 136V128H391.566L408 154.294V416H395.7C398.516 411.138 400.001 405.619 400.005 400C400.009 394.381 398.533 388.86 395.724 383.994C392.916 379.127 388.874 375.086 384.007 372.278C379.14 369.471 373.619 367.995 368 368H315.991C334.104 347.38 344.064 320.855 344 293.409C344 270.959 337.537 248.984 325.383 230.109C313.229 211.234 295.898 196.257 275.461 186.967L235.311 168.717C233.805 168.033 232.125 167.832 230.5 168.142C228.876 168.452 227.387 169.258 226.24 170.449C225.092 171.64 224.342 173.157 224.092 174.792C223.842 176.427 224.105 178.099 224.845 179.578L238.445 206.787C243.061 215.996 244.657 226.426 243.007 236.594C241.357 246.762 236.545 256.152 229.254 263.429L224.543 268.139C223.924 268.759 223.125 269.168 222.261 269.308C221.396 269.449 220.509 269.313 219.726 268.921C213.784 265.974 208.787 261.422 205.301 255.78C201.814 250.138 199.978 243.632 200 237V224C200 222.35 199.489 220.74 198.539 219.392C197.588 218.043 196.244 217.021 194.69 216.466C193.136 215.912 191.448 215.851 189.858 216.293C188.268 216.734 186.854 217.657 185.809 218.934L171.122 236.884C156.11 255.233 147.551 278.012 146.766 301.707C145.982 325.402 153.014 348.697 166.779 368H104V154.294L120.434 128H144ZM272 400C272 396.835 272.938 393.742 274.697 391.111C276.455 388.48 278.953 386.429 281.877 385.218C284.801 384.007 288.018 383.69 291.121 384.307C294.225 384.925 297.076 386.449 299.314 388.686C301.551 390.924 303.075 393.775 303.693 396.879C304.31 399.982 303.993 403.199 302.782 406.123C301.571 409.047 299.52 411.545 296.889 413.304C294.258 415.062 291.165 416 288 416C283.758 415.995 279.691 414.308 276.692 411.308C273.692 408.309 272.005 404.242 272 400V400ZM228 368L225.6 364.8C217.467 353.911 211.949 341.295 209.474 327.931L213 330.28C217.019 332.959 221.562 334.752 226.327 335.542C231.092 336.331 235.97 336.098 240.638 334.858C245.306 333.619 249.657 331.4 253.402 328.351C257.148 325.301 260.202 321.49 262.362 317.17L270.67 300.556C271.553 304.945 271.999 309.412 272 313.889V315.011C271.999 327.295 268.661 339.348 262.341 349.882L251.47 368H228ZM276.061 358.114C283.873 345.093 287.999 330.195 288 315.011V313.889C287.984 300.885 284.957 288.06 279.155 276.422C278.491 275.093 277.469 273.976 276.205 273.195C274.942 272.414 273.486 272.001 272 272.001C270.514 272.001 269.058 272.414 267.795 273.195C266.531 273.976 265.51 275.093 264.845 276.422L248.045 310.014C246.9 312.305 245.28 314.326 243.294 315.943C241.308 317.561 239 318.737 236.525 319.395C234.049 320.052 231.462 320.176 228.935 319.757C226.408 319.339 223.999 318.388 221.868 316.967L204.434 305.344C203.229 304.542 201.829 304.081 200.384 304.012C198.938 303.943 197.501 304.267 196.224 304.95C194.948 305.633 193.882 306.649 193.138 307.891C192.394 309.132 192.001 310.553 192 312C192.047 331.842 197.729 351.262 208.384 368H187.42C172.238 351.722 163.474 330.49 162.754 308.243C162.034 285.995 169.407 264.242 183.505 247.016L184.7 245.556C186.024 253.597 189.243 261.207 194.09 267.758C198.936 274.309 205.272 279.613 212.574 283.231C216.36 285.129 220.648 285.785 224.828 285.107C229.009 284.428 232.869 282.45 235.861 279.453L240.571 274.743C250.239 265.093 256.62 252.641 258.808 239.158C260.997 225.674 258.88 211.843 252.76 199.631L249.26 192.631L268.839 201.531C286.48 209.549 301.44 222.477 311.931 238.77C322.422 255.062 328.001 274.031 328 293.409C328.033 307.64 324.927 321.704 318.902 334.597C312.877 347.49 304.083 358.895 293.145 368H270.13L276.061 358.114ZM315.7 384H340.31C337.49 388.861 336.005 394.38 336.005 400C336.005 405.62 337.49 411.139 340.31 416H315.7C318.52 411.139 320.005 405.62 320.005 400C320.005 394.38 318.52 388.861 315.7 384V384ZM352 400C352 396.835 352.938 393.742 354.697 391.111C356.455 388.48 358.953 386.429 361.877 385.218C364.801 384.007 368.018 383.69 371.121 384.307C374.225 384.925 377.076 386.449 379.314 388.686C381.551 390.924 383.075 393.775 383.693 396.879C384.31 399.982 383.993 403.199 382.782 406.123C381.571 409.047 379.52 411.545 376.889 413.304C374.258 415.062 371.165 416 368 416C363.758 415.995 359.691 414.308 356.692 411.308C353.692 408.309 352.005 404.242 352 400V400ZM108.529 96H121.566L111.566 112H98.929L108.529 96ZM38.434 96H51.471L73.14 132.116C73.8508 133.301 74.8562 134.281 76.0584 134.962C77.2606 135.642 78.6185 136 80 136C81.3815 136 82.7395 135.642 83.9417 134.962C85.1438 134.281 86.1493 133.301 86.86 132.116L89.33 128H101.566L89.216 147.76C88.4214 149.031 88 150.501 88 152V368H72V152C72 150.501 71.5787 149.031 70.784 147.76L38.434 96ZM48 400C48.005 395.758 49.6924 391.691 52.6919 388.692C55.6914 385.692 59.7581 384.005 64 384H260.305C257.485 388.861 256 394.38 256 400C256 405.62 257.485 411.139 260.305 416H64C59.7581 415.995 55.6914 414.308 52.6919 411.308C49.6924 408.309 48.005 404.242 48 400V400ZM424 416V152C424 150.501 423.579 149.031 422.784 147.76L410.434 128H422.67L425.14 132.116C425.851 133.301 426.856 134.281 428.058 134.962C429.261 135.642 430.619 136 432 136C433.382 136 434.74 135.642 435.942 134.962C437.144 134.281 438.149 133.301 438.86 132.116L460.529 96H473.566L441.216 147.76C440.421 149.031 440 150.501 440 152V416H424Z" fill="black"/>
</svg>
