<?xml version="1.0" encoding="iso-8859-1"?>
<!-- Generator: Adobe Illustrator 21.1.0, SVG Export Plug-In . SVG Version: 6.00 Build 0)  -->
<svg version="1.1" id="Layer_1" xmlns="http://www.w3.org/2000/svg" xmlns:xlink="http://www.w3.org/1999/xlink" x="0px" y="0px"
	 viewBox="0 0 100 100" style="enable-background:new 0 0 100 100;" xml:space="preserve">
<g>
	<path d="M52.76,71.163H37.481c-0.829,0-1.5,0.672-1.5,1.5v16.874h-5.344V72.663c0-0.828-0.671-1.5-1.5-1.5H10.123l14.814-14.816
		c0.429-0.429,0.558-1.074,0.325-1.635c-0.232-0.561-0.779-0.926-1.386-0.926h-9.054l15.16-15.16
		c0.14-0.139,0.251-0.307,0.328-0.492c0.003-0.007,0.004-0.015,0.007-0.023c0.067-0.17,0.106-0.354,0.107-0.547c0,0,0,0,0,0s0,0,0,0
		c0-0.194-0.04-0.378-0.107-0.548c-0.003-0.007-0.004-0.015-0.007-0.022c-0.152-0.37-0.447-0.665-0.817-0.817
		c-0.007-0.003-0.015-0.004-0.022-0.007c-0.17-0.067-0.354-0.107-0.548-0.107h-8.709l13.212-13.211l7.802,7.878
		c0.583,0.587,1.532,0.593,2.122,0.01c0.588-0.583,0.593-1.533,0.01-2.122l-8.863-8.949c-0.281-0.283-0.663-0.443-1.062-0.444
		c-0.444,0.003-0.782,0.158-1.064,0.439L15.532,36.503c-0.429,0.429-0.558,1.074-0.325,1.635c0.232,0.561,0.779,0.926,1.386,0.926
		h8.71L10.141,54.226C9.711,54.654,9.583,55.3,9.815,55.86c0.232,0.561,0.779,0.926,1.386,0.926h9.055L5.441,71.603
		c-0.429,0.429-0.558,1.074-0.325,1.635c0.232,0.561,0.779,0.926,1.386,0.926h21.135v16.874c0,0.828,0.671,1.5,1.5,1.5h8.344
		c0.829,0,1.5-0.672,1.5-1.5V74.163H52.76c0.828,0,1.5-0.672,1.5-1.5S53.588,71.163,52.76,71.163z"/>
	<path d="M94.563,60.782L79.578,45.648h9.137c0.605,0,1.151-0.364,1.385-0.922c0.232-0.559,0.107-1.203-0.319-1.633L74.444,27.606
		h8.78c0.605,0,1.151-0.364,1.385-0.922c0.232-0.559,0.107-1.203-0.319-1.633L67.313,7.907c-0.28-0.283-0.663-0.443-1.062-0.444
		c-0.002,0-0.003,0-0.004,0c-0.397,0-0.779,0.158-1.061,0.439L48.045,25.045c-0.429,0.429-0.558,1.074-0.325,1.635
		c0.232,0.561,0.779,0.926,1.386,0.926h8.932L42.555,43.087c-0.429,0.429-0.558,1.074-0.325,1.635
		c0.232,0.56,0.779,0.926,1.386,0.926h9.282L37.771,60.777c-0.429,0.429-0.558,1.074-0.325,1.635
		c0.232,0.561,0.779,0.926,1.386,0.926h21.545v17.205c0,0.828,0.672,1.5,1.5,1.5h8.492c0.828,0,1.5-0.672,1.5-1.5V63.338h21.629
		c0.605,0,1.151-0.364,1.385-0.923C95.115,61.856,94.99,61.213,94.563,60.782z M70.369,60.338c-0.828,0-1.5,0.672-1.5,1.5v17.205
		h-5.492V61.838c0-0.828-0.672-1.5-1.5-1.5H42.453l15.126-15.129c0.429-0.429,0.558-1.074,0.325-1.635s-0.779-0.926-1.386-0.926
		h-9.282l15.482-15.48c0.139-0.139,0.251-0.306,0.327-0.491c0.003-0.008,0.004-0.016,0.007-0.023
		c0.067-0.17,0.106-0.353,0.106-0.547c0,0,0,0,0,0s0,0,0,0c0-0.194-0.04-0.377-0.107-0.547c-0.003-0.007-0.004-0.015-0.007-0.022
		c-0.152-0.37-0.447-0.664-0.817-0.817c-0.007-0.003-0.015-0.004-0.023-0.007c-0.17-0.067-0.354-0.107-0.547-0.107h-8.932
		l13.516-13.517l13.385,13.517h-8.771c-0.828,0-1.5,0.671-1.5,1.5c0,0,0,0.001,0,0.001c0,0.001,0,0.002,0,0.003
		c0,0.183,0.038,0.357,0.099,0.519c0.007,0.02,0.01,0.04,0.018,0.059c0.068,0.162,0.167,0.306,0.284,0.433
		c0.014,0.015,0.018,0.035,0.033,0.05l15.326,15.477h-9.136c-0.605,0-1.151,0.364-1.385,0.922c-0.232,0.559-0.107,1.203,0.319,1.633
		l14.985,15.135H70.369z"/>
</g>
</svg>
