<?xml version="1.0" encoding="utf-8"?>
<!-- Generator: Adobe Illustrator 16.0.0, SVG Export Plug-In . SVG Version: 6.00 Build 0)  -->
<!DOCTYPE svg PUBLIC "-//W3C//DTD SVG 1.0//EN" "http://www.w3.org/TR/2001/REC-SVG-20010904/DTD/svg10.dtd">
<svg version="1.0" id="Layer_1" xmlns="http://www.w3.org/2000/svg" xmlns:xlink="http://www.w3.org/1999/xlink" x="0px" y="0px"
	 width="100px" height="100px" viewBox="0 0 100 100" enable-background="new 0 0 100 100" xml:space="preserve">
<path d="M50,9.999c-5.521,0-10,4.476-10,10c0,5.521,4.479,10,10,10s10-4.479,10-10C60,14.475,55.521,9.999,50,9.999z M50,23.332
	c-1.843,0-3.333-1.494-3.333-3.333c0-1.843,1.49-3.333,3.333-3.333s3.333,1.491,3.333,3.333C53.333,21.838,51.843,23.332,50,23.332z
	"/>
<polygon points="49.114,72.279 31.38,90.001 26.667,85.287 44.401,67.56 "/>
<path d="M33.333,60.001H40v-7.238l6.667-6.67v16.668L60,76.095v13.906h6.667V76.667c0-1.832-1.062-4.395-2.357-5.689L53.333,59.994
	V36.666h-6.666L35.69,47.642c-1.296,1.295-2.357,3.858-2.357,5.69V60.001z"/>
<polygon points="68.62,61.381 73.333,56.667 58.333,41.666 58.333,51.093 "/>
</svg>
