<svg viewBox="0 0 48 48" xmlns="http://www.w3.org/2000/svg" xmlns:xlink="http://www.w3.org/1999/xlink" >
<defs>



 <path fill="#000000" id="i-2180" d="M42.866,2.009c-0.196,0.026-4.906,0.677-13.14,3.03c-7.008,2.002-12.942,4.941-13.191,5.066l-0.555,0.275v26.214 c-0.727-0.357-1.703-0.589-3.021-0.595c-4.248,0-8.86,2.4-8.957,5.973c-0.029,1.049,0.305,1.963,0.965,2.646 c0.857,0.889,2.25,1.366,4.027,1.381h0.084l0,0c1.979,0,4.143-0.555,5.788-1.486c2.022-1.144,3.136-2.746,3.136-4.514 c0-0.133-0.008-0.275-0.021-0.423V21.846c1.58-0.805,6.628-3.266,12.295-4.885c5.812-1.66,9.875-2.463,11.723-2.786l-0.003,18.431 c-0.73-0.363-1.716-0.6-3.051-0.605c-4.234,0-8.832,2.4-8.928,5.973c-0.028,1.059,0.306,1.98,0.966,2.663 c0.86,0.891,2.2,1.35,3.983,1.364h0.084c0.001,0,0.001,0,0.001,0c1.979,0,4.147-0.555,5.797-1.485 c2.03-1.144,3.147-2.747,3.147-4.515L44,1.855L42.866,2.009z M13.881,42.773C12.523,43.541,10.705,44,9.056,44 c-1.21-0.01-2.181-0.283-2.65-0.77c-0.286-0.297-0.418-0.689-0.404-1.203C6.063,39.723,9.727,38,12.997,38 c3.005,0.014,3.005,1.355,3.005,2C16.002,41.369,14.674,42.325,13.881,42.773z M29.727,15.039c-5.051,1.442-9.529,3.484-11.746,4.57 v-7.98c1.635-0.773,6.674-3.061,12.295-4.668C36.068,5.306,40.142,4.5,42,4.175l-0.001,7.969 C40.283,12.431,36.054,13.23,29.727,15.039z M39.866,38.772C38.502,39.541,36.679,40,35.027,40c-1.191-0.01-2.146-0.277-2.606-0.754 c-0.286-0.297-0.419-0.695-0.404-1.219C32.078,35.723,35.725,34,38.981,34c3.014,0.014,3.014,1.406,3.014,2 C41.995,37.367,40.661,38.324,39.866,38.772z"/> 
</defs>

<use x="0" y="0" xlink:href="#i-2180"/>

</svg>